<?xml version="1.0" standalone="no"?>
<!DOCTYPE svg PUBLIC "-//W3C//DTD SVG 20010904//EN"
 "http://www.w3.org/TR/2001/REC-SVG-20010904/DTD/svg10.dtd">
<svg version="1.0" xmlns="http://www.w3.org/2000/svg"
 width="256.000000pt" height="256.000000pt" viewBox="0 0 256.000000 256.000000"
 preserveAspectRatio="xMidYMid meet">
<metadata>
Created by potrace 1.11, written by Peter Selinger 2001-2013
</metadata>
<g transform="translate(0.000000,256.000000) scale(0.100000,-0.100000)"
fill="#000000" stroke="none">
<path d="M1080 2549 c-279 -23 -560 -100 -815 -223 -213 -102 -248 -148 -253
-330 -2 -59 1 -154 8 -210 79 -701 448 -1307 1038 -1705 100 -67 137 -81 224
-81 68 0 84 4 143 34 183 96 447 326 614 536 304 381 476 822 510 1309 12 160
4 221 -34 287 -37 63 -76 91 -230 165 -375 179 -783 253 -1205 218z m520 -104
c227 -34 459 -105 659 -201 196 -93 219 -136 201 -359 -38 -473 -203 -894
-490 -1255 -92 -115 -294 -310 -410 -396 -247 -182 -288 -188 -466 -66 -274
188 -510 436 -674 706 -196 325 -317 739 -321 1096 -2 155 25 191 212 279 240
113 524 189 809 215 87 8 376 -4 480 -19z"/>
<path d="M1045 2353 c-185 -22 -394 -73 -539 -130 -130 -51 -268 -121 -288
-146 -48 -59 0 -439 89 -709 148 -452 453 -855 846 -1119 118 -79 136 -79 254
0 133 90 237 177 349 293 302 313 501 705 575 1128 26 145 37 367 20 398 -14
26 -171 107 -305 159 -125 48 -333 100 -471 118 -105 14 -443 19 -530 8z m418
-718 c304 -176 394 -232 385 -241 -16 -14 -833 -484 -841 -484 -4 0 -7 223 -7
496 l0 496 33 -19 c17 -10 211 -122 430 -248z"/>
</g>
</svg>
