<?xml version="1.0" encoding="UTF-8" standalone="no"?>
<!-- Generator: Adobe Illustrator 16.0.0, SVG Export Plug-In . SVG Version: 6.00 Build 0)  -->

<svg
   xmlns:dc="http://purl.org/dc/elements/1.1/"
   xmlns:cc="http://creativecommons.org/ns#"
   xmlns:rdf="http://www.w3.org/1999/02/22-rdf-syntax-ns#"
   xmlns:svg="http://www.w3.org/2000/svg"
   xmlns="http://www.w3.org/2000/svg"
   xmlns:sodipodi="http://sodipodi.sourceforge.net/DTD/sodipodi-0.dtd"
   xmlns:inkscape="http://www.inkscape.org/namespaces/inkscape"
   version="1.1"
   id="Capa_1"
   x="0px"
   y="0px"
   width="561px"
   height="561px"
   viewBox="0 0 561 561"
   style="enable-background:new 0 0 561 561;"
   xml:space="preserve"
   sodipodi:docname="chromecast.svg"
   inkscape:version="0.92.4 (5da689c313, 2019-01-14)"><metadata
   id="metadata42"><rdf:RDF><cc:Work
       rdf:about=""><dc:format>image/svg+xml</dc:format><dc:type
         rdf:resource="http://purl.org/dc/dcmitype/StillImage" /></cc:Work></rdf:RDF></metadata><defs
   id="defs40" /><sodipodi:namedview
   pagecolor="#ffffff"
   bordercolor="#666666"
   borderopacity="1"
   objecttolerance="10"
   gridtolerance="10"
   guidetolerance="10"
   inkscape:pageopacity="0"
   inkscape:pageshadow="2"
   inkscape:window-width="730"
   inkscape:window-height="480"
   id="namedview38"
   showgrid="false"
   inkscape:zoom="0.42067736"
   inkscape:cx="280.5"
   inkscape:cy="280.5"
   inkscape:window-x="854"
   inkscape:window-y="1188"
   inkscape:window-maximized="0"
   inkscape:current-layer="Capa_1" />
<g
   id="g5"
   style="fill:#ffffff">
	<g
   id="cast"
   style="fill:#ffffff">
		<path
   d="M510,51H51C22.95,51,0,73.95,0,102v76.5h51V102h459v357H331.5v51H510c28.05,0,51-22.95,51-51V102    C561,73.95,538.05,51,510,51z M0,433.5V510h76.5C76.5,466.65,43.35,433.5,0,433.5z M0,331.5v51c71.4,0,127.5,56.1,127.5,127.5h51    C178.5,410.55,99.45,331.5,0,331.5z M0,229.5v51c127.5,0,229.5,102,229.5,229.5h51C280.5,354.45,155.55,229.5,0,229.5z"
   id="path2"
   style="fill:#ffffff" />
	</g>
</g>
<g
   id="g7">
</g>
<g
   id="g9">
</g>
<g
   id="g11">
</g>
<g
   id="g13">
</g>
<g
   id="g15">
</g>
<g
   id="g17">
</g>
<g
   id="g19">
</g>
<g
   id="g21">
</g>
<g
   id="g23">
</g>
<g
   id="g25">
</g>
<g
   id="g27">
</g>
<g
   id="g29">
</g>
<g
   id="g31">
</g>
<g
   id="g33">
</g>
<g
   id="g35">
</g>
</svg>